<?xml version="1.0" encoding="utf-8"?>
<!-- Generator: Adobe Illustrator 26.0.2, SVG Export Plug-In . SVG Version: 6.00 Build 0)  -->
<svg version="1.1" id="artwork" xmlns="http://www.w3.org/2000/svg" xmlns:xlink="http://www.w3.org/1999/xlink" x="0px" y="0px"
	 viewBox="0 0 1080 1080" style="enable-background:new 0 0 1080 1080;" xml:space="preserve">
<style type="text/css">
	.st0{fill:#FFFFFF;fill-opacity:0;}
	.st1{fill:#A6A6A6;}
	.st2{fill:#FFFFFF;}
	.st3{fill:url(#SVGID_1_);}
	.st4{fill:url(#SVGID_00000076584154229516580870000012713187980403365789_);}
	.st5{fill:url(#SVGID_00000133504819371593869940000006578241244767127703_);}
	.st6{fill:url(#SVGID_00000106141550458554284400000012680158585971921331_);}
	.st7{opacity:0.2;enable-background:new    ;}
	.st8{opacity:0.12;enable-background:new    ;}
	.st9{opacity:0.25;fill:#FFFFFF;enable-background:new    ;}
	.st10{fill:#FFFFFF;stroke:#FFFFFF;stroke-width:0.2;stroke-miterlimit:10;}
</style>
<g>
	<g>
		<rect x="-3.6" y="329.6" class="st0" width="1087.2" height="420.9"/>
		<g>
			<path d="M978.4,680.3H101.6c-19.3,0-35.1-15.8-35.1-35.1V434.8c0-19.3,15.8-35.1,35.1-35.1h876.8c19.3,0,35.1,15.8,35.1,35.1
				v210.4C1013.5,664.5,997.7,680.3,978.4,680.3z"/>
		</g>
		<g>
			<g>
				<path class="st1" d="M978.4,405.3c16.2,0,29.5,13.2,29.5,29.5v210.4c0,16.2-13.2,29.5-29.5,29.5H101.6
					c-16.2,0-29.5-13.2-29.5-29.5V434.8c0-16.2,13.2-29.5,29.5-29.5H978.4 M978.4,399.7H101.6c-19.3,0-35.1,15.8-35.1,35.1v210.4
					c0,19.3,15.8,35.1,35.1,35.1h876.8c19.3,0,35.1-15.8,35.1-35.1V434.8C1013.5,415.5,997.7,399.7,978.4,399.7L978.4,399.7z"/>
			</g>
		</g>
		<path class="st2" d="M544.5,552.3c-16.5,0-29.9,12.5-29.9,29.8c0,17.2,13.4,29.8,29.9,29.8c16.5,0,29.9-12.7,29.9-29.8
			C574.4,564.8,561,552.3,544.5,552.3z M544.5,600.2c-9,0-16.8-7.5-16.8-18.1c0-10.7,7.8-18.1,16.8-18.1s16.8,7.3,16.8,18.1
			C561.3,592.7,553.5,600.2,544.5,600.2z M479.1,552.3c-16.5,0-29.9,12.5-29.9,29.8c0,17.2,13.4,29.8,29.9,29.8
			c16.5,0,29.9-12.7,29.9-29.8C509.1,564.8,495.6,552.3,479.1,552.3z M479.1,600.2c-9,0-16.8-7.5-16.8-18.1
			c0-10.7,7.8-18.1,16.8-18.1c9,0,16.8,7.3,16.8,18.1C496,592.7,488.2,600.2,479.1,600.2z M401.4,561.4v12.7h30.3
			c-0.9,7.1-3.3,12.3-6.9,15.9c-4.4,4.4-11.3,9.3-23.4,9.3c-18.6,0-33.2-15-33.2-33.7s14.6-33.7,33.2-33.7c10.1,0,17.4,4,22.8,9
			l8.9-8.9c-7.6-7.2-17.6-12.8-31.8-12.8c-25.5,0-47,20.8-47,46.3c0,25.5,21.5,46.3,47,46.3c13.8,0,24.2-4.5,32.3-13
			c8.4-8.4,11-20.1,11-29.6c0-2.9-0.2-5.6-0.7-7.9H401.4z M719.2,571.3c-2.5-6.7-10.1-19-25.5-19c-15.4,0-28.1,12.1-28.1,29.8
			c0,16.7,12.7,29.8,29.6,29.8c13.7,0,21.6-8.4,24.9-13.2l-10.2-6.8c-3.4,5-8,8.2-14.7,8.2c-6.7,0-11.4-3.1-14.5-9l39.9-16.5
			L719.2,571.3z M678.5,581.2c-0.3-11.5,8.9-17.4,15.6-17.4c5.2,0,9.6,2.6,11.1,6.3L678.5,581.2z M646.1,610.1h13.1v-87.7h-13.1
			V610.1z M624.6,559h-0.5c-2.9-3.5-8.6-6.7-15.7-6.7c-14.9,0-28.6,13.1-28.6,29.9c0,16.7,13.7,29.7,28.6,29.7
			c7.1,0,12.8-3.2,15.7-6.8h0.5v4.3c0,11.4-6.1,17.5-15.9,17.5c-8,0-13-5.8-15-10.6l-11.4,4.7c3.3,7.9,12,17.6,26.4,17.6
			c15.4,0,28.4-9,28.4-31.1v-53.6h-12.4V559z M609.6,600.2c-9,0-16.6-7.6-16.6-18c0-10.5,7.6-18.2,16.6-18.2
			c8.9,0,15.9,7.7,15.9,18.2C625.5,592.6,618.5,600.2,609.6,600.2z M780.6,522.5h-31.4v87.7h13.1v-33.2h18.3
			c14.5,0,28.8-10.5,28.8-27.2C809.4,533,795.1,522.5,780.6,522.5z M781,564.7h-18.6v-30.1H781c9.8,0,15.3,8.1,15.3,15
			C796.3,556.5,790.8,564.7,781,564.7z M861.9,552.1c-9.5,0-19.3,4.2-23.4,13.4l11.6,4.9c2.5-4.9,7.1-6.4,12-6.4
			c6.8,0,13.7,4.1,13.8,11.3v0.9c-2.4-1.4-7.4-3.4-13.7-3.4c-12.5,0-25.3,6.9-25.3,19.7c0,11.7,10.3,19.3,21.8,19.3
			c8.8,0,13.7-3.9,16.7-8.6h0.5v6.8h12.6v-33.6C888.5,560.8,876.9,552.1,861.9,552.1z M860.3,600.2c-4.3,0-10.3-2.1-10.3-7.4
			c0-6.8,7.4-9.4,13.9-9.4c5.8,0,8.5,1.2,12,2.9C874.8,594.4,867.8,600.2,860.3,600.2z M934.5,554l-15,38H919l-15.6-38h-14.1
			l23.4,53.1l-13.3,29.6h13.6l36-82.7H934.5z M816.6,610.1h13.1v-87.7h-13.1V610.1z"/>
		<g>
			
				<linearGradient id="SVGID_1_" gradientUnits="userSpaceOnUse" x1="219.4485" y1="1781.1925" x2="101.7331" y2="1663.4772" gradientTransform="matrix(1 0 0 -1 0 2242)">
				<stop  offset="0" style="stop-color:#00A0FF"/>
				<stop  offset="6.574450e-03" style="stop-color:#00A1FF"/>
				<stop  offset="0.2601" style="stop-color:#00BEFF"/>
				<stop  offset="0.5122" style="stop-color:#00D2FF"/>
				<stop  offset="0.7604" style="stop-color:#00DFFF"/>
				<stop  offset="1" style="stop-color:#00E3FF"/>
			</linearGradient>
			<path class="st3" d="M139.7,452.6c-2,2.2-3.2,5.5-3.2,9.9v155.1c0,4.3,1.2,7.7,3.2,9.9l0.5,0.5l86.9-86.9v-1v-1l-86.9-86.9
				L139.7,452.6z"/>
			
				<linearGradient id="SVGID_00000110446963166351407640000009972376453642312095_" gradientUnits="userSpaceOnUse" x1="303.8621" y1="1701.9899" x2="134.1398" y2="1701.9899" gradientTransform="matrix(1 0 0 -1 0 2242)">
				<stop  offset="0" style="stop-color:#FFE000"/>
				<stop  offset="0.4087" style="stop-color:#FFBD00"/>
				<stop  offset="0.7754" style="stop-color:#FFA500"/>
				<stop  offset="1" style="stop-color:#FF9C00"/>
			</linearGradient>
			<path style="fill:url(#SVGID_00000110446963166351407640000009972376453642312095_);" d="M256.1,570l-29-29v-1v-1l29-29l0.7,0.4
				l34.3,19.5c9.8,5.6,9.8,14.7,0,20.3l-34.3,19.5L256.1,570z"/>
			
				<linearGradient id="SVGID_00000033370337422914298080000003271981491122991524_" gradientUnits="userSpaceOnUse" x1="240.6821" y1="1685.8947" x2="81.0506" y2="1526.2632" gradientTransform="matrix(1 0 0 -1 0 2242)">
				<stop  offset="0" style="stop-color:#FF3A44"/>
				<stop  offset="1" style="stop-color:#C31162"/>
			</linearGradient>
			<path style="fill:url(#SVGID_00000033370337422914298080000003271981491122991524_);" d="M256.8,569.6L227.2,540l-87.4,87.4
				c3.2,3.4,8.6,3.8,14.6,0.4L256.8,569.6"/>
			
				<linearGradient id="SVGID_00000049941026286234947420000008718222731544157599_" gradientUnits="userSpaceOnUse" x1="117.7255" y1="1841.0486" x2="189.0076" y2="1769.7665" gradientTransform="matrix(1 0 0 -1 0 2242)">
				<stop  offset="0" style="stop-color:#32A071"/>
				<stop  offset="6.850000e-02" style="stop-color:#2DA771"/>
				<stop  offset="0.4762" style="stop-color:#15CF74"/>
				<stop  offset="0.8009" style="stop-color:#06E775"/>
				<stop  offset="1" style="stop-color:#00F076"/>
			</linearGradient>
			<path style="fill:url(#SVGID_00000049941026286234947420000008718222731544157599_);" d="M256.8,510.4l-102.5-58.2
				c-6-3.4-11.3-3-14.6,0.4l87.4,87.4L256.8,510.4z"/>
			<g>
				<path class="st7" d="M256.1,569l-101.8,57.8c-5.7,3.2-10.8,3-14.1,0.1l0,0l-0.5,0.5l0,0l0.5,0.5l0,0c3.3,2.9,8.4,3.2,14.1-0.1
					l102.5-58.2L256.1,569z"/>
				<path class="st8" d="M139.7,626.4c-2-2.2-3.2-5.5-3.2-9.9v1c0,4.3,1.2,7.7,3.2,9.9l0.5-0.5L139.7,626.4z"/>
			</g>
			<path class="st8" d="M291.1,549.1l-35,19.9l0.7,0.7l34.3-19.5c4.9-2.8,7.4-6.5,7.4-10.1l0,0C298,543.3,295.5,546.6,291.1,549.1z"
				/>
			<path class="st9" d="M154.3,453.2l136.8,77.7c4.4,2.5,6.9,5.8,7.4,9.1l0,0c0-3.7-2.5-7.3-7.4-10.1l-136.8-77.7
				c-9.8-5.6-17.8-0.9-17.8,10.3v1C136.5,452.2,144.5,447.6,154.3,453.2z"/>
		</g>
	</g>
	<g>
		<path class="st10" d="M356,490.9v-42.1h12.9c6.5,0,11.6,1.9,15.5,5.8c3.9,3.9,5.8,9,5.8,15.2c0,6.2-1.9,11.3-5.8,15.2
			c-3.9,3.9-9.1,5.8-15.5,5.8H356z M361.4,485.7h7.5c4.9,0,8.7-1.4,11.5-4.2c2.8-2.8,4.3-6.7,4.3-11.7c0-5-1.4-8.9-4.3-11.7
			c-2.8-2.8-6.7-4.2-11.5-4.2h-7.5V485.7z"/>
		<path class="st10" d="M397.8,490.9v-42.1h5.4v42.1H397.8z"/>
		<path class="st10" d="M424.7,491.8c-3.1,0-6-1-9-3c-2.9-2-4.8-4.8-5.7-8.4l4.9-2c0.6,2.3,1.8,4.3,3.6,5.8c1.8,1.6,3.9,2.4,6.1,2.4
			c2.3,0,4.4-0.6,6-1.8c1.7-1.2,2.5-2.9,2.5-5c0-2.3-0.8-4.2-2.5-5.4c-1.7-1.3-4.3-2.5-7.9-3.6c-3.7-1.2-6.5-2.7-8.5-4.6
			c-1.9-1.9-2.9-4.2-2.9-7.1c0-3,1.2-5.6,3.6-7.9c2.4-2.2,5.5-3.4,9.3-3.4c3.6,0,6.5,0.9,8.7,2.7c2.2,1.8,3.7,3.7,4.4,5.8l-4.9,2.1
			c-0.4-1.3-1.2-2.6-2.6-3.7c-1.4-1.1-3.2-1.7-5.4-1.7c-2.1,0-3.8,0.6-5.3,1.7c-1.5,1.2-2.2,2.6-2.2,4.3c0,1.6,0.7,2.9,2,4
			c1.4,1.1,3.3,2,6,2.9c2.1,0.7,3.8,1.3,5.2,1.9c1.4,0.6,2.8,1.5,4.2,2.5c1.4,1,2.5,2.3,3.2,3.9c0.7,1.5,1.1,3.3,1.1,5.4
			s-0.4,3.9-1.3,5.5c-0.8,1.6-2,2.9-3.4,3.8c-1.4,0.9-2.9,1.7-4.5,2.1S426.4,491.8,424.7,491.8z"/>
		<path class="st10" d="M451.9,490.9h-5.4v-42.1h14.3c3.6,0,6.7,1.2,9.3,3.6c2.6,2.4,3.9,5.4,3.9,9c0,3.6-1.3,6.6-3.9,9
			c-2.6,2.4-5.7,3.6-9.3,3.6h-8.9V490.9z M451.9,468.7h9.1c2.3,0,4.1-0.8,5.5-2.3c1.4-1.5,2.1-3.2,2.1-5.1c0-1.8-0.7-3.5-2.1-5.1
			c-1.4-1.5-3.2-2.3-5.5-2.3h-9.1V468.7z"/>
		<path class="st10" d="M515.3,485.5c-4.1,4.3-9.3,6.4-15.4,6.4c-6.2,0-11.3-2.1-15.4-6.4c-4.1-4.2-6.2-9.5-6.2-15.6
			s2.1-11.4,6.2-15.6c4.1-4.3,9.3-6.4,15.4-6.4c6.1,0,11.2,2.1,15.4,6.4c4.2,4.3,6.2,9.5,6.2,15.6
			C521.5,476,519.4,481.2,515.3,485.5z M488.4,481.9c3.1,3.2,6.9,4.7,11.4,4.7c4.5,0,8.3-1.6,11.4-4.7c3.1-3.2,4.7-7.2,4.7-12.1
			s-1.6-8.9-4.7-12.1c-3.1-3.2-6.9-4.7-11.4-4.7c-4.5,0-8.3,1.6-11.4,4.7c-3.1,3.2-4.7,7.2-4.7,12.1S485.3,478.8,488.4,481.9z"/>
		<path class="st10" d="M529,490.9v-42.1h6.6l20.5,32.7h0.2l-0.2-8.1v-24.6h5.4v42.1h-5.6l-21.4-34.3h-0.2l0.2,8.1v26.2H529z"/>
		<path class="st10" d="M571.1,490.9v-42.1h5.4v42.1H571.1z"/>
		<path class="st10" d="M586.2,490.9v-42.1h15.2c3.3,0,6.1,1.1,8.6,3.3c2.4,2.2,3.6,4.9,3.6,8.2c0,2-0.5,3.8-1.6,5.3
			c-1,1.5-2.4,2.7-4.1,3.5v0.2c2.1,0.7,3.8,1.9,5.1,3.6c1.3,1.7,2,3.7,2,6c0,3.4-1.3,6.3-3.8,8.6c-2.5,2.3-5.5,3.4-9,3.4H586.2z
			 M591.6,466.9h9.8c2,0,3.7-0.7,4.9-2c1.2-1.3,1.8-2.8,1.8-4.4c0-1.6-0.6-3.1-1.8-4.4c-1.2-1.3-2.8-2-4.7-2h-10.1V466.9z
			 M591.6,485.7h10.9c2.1,0,3.8-0.7,5.1-2.2c1.3-1.4,1.9-3,1.9-4.8c0-1.7-0.7-3.3-2-4.7c-1.3-1.4-3.1-2.1-5.2-2.1h-10.6V485.7z"/>
		<path class="st10" d="M622.3,490.9v-42.1h5.4v42.1H622.3z"/>
		<path class="st10" d="M637.3,490.9v-42.1h5.4v36.9h18.2v5.2H637.3z"/>
		<path class="st10" d="M692.3,454h-19.2v13.3h17.3v5.1h-17.3v13.3h19.2v5.2h-24.6v-42.1h24.6V454z"/>
		<path class="st10" d="M725,491.8c-3.1,0-6-1-9-3c-2.9-2-4.8-4.8-5.7-8.4l4.9-2c0.6,2.3,1.8,4.3,3.6,5.8c1.8,1.6,3.9,2.4,6.1,2.4
			c2.3,0,4.4-0.6,6-1.8c1.7-1.2,2.5-2.9,2.5-5c0-2.3-0.8-4.2-2.5-5.4c-1.7-1.3-4.3-2.5-7.9-3.6c-3.7-1.2-6.5-2.7-8.5-4.6
			c-1.9-1.9-2.9-4.2-2.9-7.1c0-3,1.2-5.6,3.6-7.9c2.4-2.2,5.5-3.4,9.3-3.4c3.6,0,6.5,0.9,8.7,2.7c2.2,1.8,3.7,3.7,4.4,5.8l-4.9,2.1
			c-0.4-1.3-1.2-2.6-2.6-3.7c-1.4-1.1-3.2-1.7-5.4-1.7c-2.1,0-3.8,0.6-5.3,1.7c-1.5,1.2-2.2,2.6-2.2,4.3c0,1.6,0.7,2.9,2,4
			c1.4,1.1,3.3,2,6,2.9c2.1,0.7,3.8,1.3,5.2,1.9c1.4,0.6,2.8,1.5,4.2,2.5c1.4,1,2.5,2.3,3.2,3.9c0.7,1.5,1.1,3.3,1.1,5.4
			s-0.4,3.9-1.3,5.5c-0.8,1.6-2,2.9-3.4,3.8c-1.4,0.9-2.9,1.7-4.5,2.1C728.3,491.6,726.7,491.8,725,491.8z"/>
		<path class="st10" d="M761.4,491.8c-4.6,0-8.4-1.5-11.3-4.6c-2.9-3.1-4.3-7.1-4.3-12v-26.5h5.4v26.7c0,3.3,0.9,6,2.6,8.1
			c1.7,2.1,4.3,3.1,7.6,3.1c3.3,0,5.8-1,7.5-3.1c1.7-2.1,2.6-4.8,2.6-8.1v-26.7h5.4v26.5c0,5-1.4,9-4.2,12
			C770,490.3,766.2,491.8,761.4,491.8z"/>
	</g>
</g>
</svg>
